# xmcd CD database file
#
# Track frame offsets:
#	200
#	14262
#	45340
#	66167
#	79582
#	105815
#	127577
#	161532
#	185775
#	204012
#	223907
#	243405
#	257330
#	284420
#
# Disc length: 4013 seconds
#
# Revision: 0
# Processed by: cddbd v1.5.1PL0 Copyright (c) Steve Scherf et al.
# Submitted via: cdripper 1.0.7
#
DISCID=af0fab0e
DTITLE=Big Wheeler's - Bone Orchard
DYEAR=1993
DGENRE=Blues
TTITLE0=Bad Bacon Baby
TTITLE1=I Got a Feeling I Got the Blues
TTITLE2=Bone Orchard
TTITLE3=You Got Me Messed Up
TTITLE4=Hell Bound Man
TTITLE5=She Loves Another Man
TTITLE6=Evil Woman
TTITLE7=Down in Virginia
TTITLE8=Katie Blues
TTITLE9=Damn Good Mojo
TTITLE10=Everybody Needs Somebody
TTITLE11=Man or Mouse
TTITLE12=Chains of Love
TTITLE13=Bad Bacon Baby
EXTD=YEAR: 1993
EXTT0=
EXTT1=
EXTT2=
EXTT3=
EXTT4=
EXTT5=
EXTT6=
EXTT7=
EXTT8=
EXTT9=
EXTT10=
EXTT11=
EXTT12=
EXTT13=
PLAYORDER=
